# xmcd
#
# Track frame offsets:
#	150
#	16046
#	34276
#	48894
#	66705
#	70469
#	85467
#	100984
#	103265
#	124219
#	143154
#	158275
#	176522
#
# Disc length: 2623 seconds
#
# Revision: 1
# Processed by: cddbd v1.5.2PL0 Copyright (c) Steve Scherf et al.
# Submitted via: audiograbber 1.83.01
#
DISCID=b40a3d0d
DTITLE=LJ - Sho-nuff
DYEAR=2003
DGENRE=R&B
TTITLE0=Sho-Nuff
TTITLE1=Fro's
TTITLE2=Neva Gonna Change
TTITLE3=Tonight
TTITLE4=Come Hard (skit)
TTITLE5=The Realest
TTITLE6=Throw it Up
TTITLE7=In Love (skit)
TTITLE8=Fortunately
TTITLE9=Friends
TTITLE10=Busy
TTITLE11=Why
TTITLE12=Sho Nuff (bonus remix)
EXTD=
EXTT0=
EXTT1=
EXTT2=
EXTT3=
EXTT4=
EXTT5=
EXTT6=
EXTT7=
EXTT8=
EXTT9=
EXTT10=
EXTT11=
EXTT12=
PLAYORDER=
